<svg width="74" height="73" viewBox="0 0 74 73" fill="none" xmlns="http://www.w3.org/2000/svg">
<path d="M40.8036 0.297363C44.9659 0.308202 47.0785 0.329879 48.9025 0.380458L49.6203 0.405748C50.4491 0.43465 51.2667 0.470779 52.2546 0.514132C56.1912 0.694773 58.8772 1.30173 61.234 2.1941C63.6759 3.11175 65.733 4.35456 67.7901 6.35968C69.6714 8.16571 71.1271 10.3504 72.0559 12.7616C72.9698 15.063 73.5914 17.6859 73.7764 21.5335C73.8208 22.4945 73.8577 23.293 73.8874 24.1059L73.9096 24.8067C73.965 26.5843 73.9873 28.6472 73.9947 32.7116L73.9984 35.4068V40.1396C74.0074 42.7748 73.9791 45.41 73.9133 48.0444L73.8911 48.7453C73.8615 49.5582 73.8245 50.3566 73.7801 51.3176C73.5951 55.1653 72.9661 57.7846 72.0559 60.0896C71.1298 62.5021 69.6737 64.6873 67.7901 66.4915C65.94 68.328 63.7029 69.7494 61.234 70.6571C58.8772 71.5494 56.1912 72.1564 52.2546 72.337C51.3767 72.3774 50.4986 72.4135 49.6203 72.4454L48.9025 72.4671C47.0785 72.5177 44.9659 72.543 40.8036 72.5502L38.0436 72.5538H33.2005C30.5006 72.5629 27.8008 72.5352 25.1017 72.4707L24.3839 72.449C23.5056 72.4165 22.6275 72.3792 21.7496 72.337C17.813 72.1564 15.127 71.5494 12.7665 70.6571C10.2975 69.7516 8.06112 68.3299 6.21412 66.4915C4.33108 64.6861 2.87402 62.5013 1.94454 60.0896C1.03068 57.7882 0.409114 55.1653 0.224123 51.3176C0.182903 50.4604 0.145905 49.6029 0.113129 48.7453L0.0946304 48.0444C0.0264505 45.41 -0.00438459 42.7748 0.00213479 40.1396V32.7116C-0.00819125 30.0764 0.0189436 27.4412 0.0835309 24.8067L0.109429 24.1059C0.139028 23.293 0.176026 22.4945 0.220424 21.5335C0.405414 17.6859 1.02698 15.0666 1.94084 12.7616C2.86991 10.3479 4.32988 8.16256 6.21782 6.35968C8.06436 4.52246 10.2992 3.10087 12.7665 2.1941C15.127 1.30173 17.8093 0.694773 21.7496 0.514132C22.7338 0.470779 23.5551 0.43465 24.3839 0.405748L25.1017 0.384071C27.7995 0.319881 30.4982 0.29218 33.1968 0.300976L40.8036 0.297363ZM37.0002 18.3615C32.094 18.3615 27.3887 20.2647 23.9194 23.6523C20.4502 27.04 18.5012 31.6347 18.5012 36.4256C18.5012 41.2165 20.4502 45.8112 23.9194 49.1988C27.3887 52.5865 32.094 54.4897 37.0002 54.4897C41.9065 54.4897 46.6118 52.5865 50.081 49.1988C53.5503 45.8112 55.4993 41.2165 55.4993 36.4256C55.4993 31.6347 53.5503 27.04 50.081 23.6523C46.6118 20.2647 41.9065 18.3615 37.0002 18.3615ZM37.0002 25.5871C38.4578 25.5869 39.9012 25.867 41.2479 26.4115C42.5947 26.9559 43.8184 27.7541 44.8493 28.7604C45.8801 29.7666 46.6979 30.9613 47.2559 32.2762C47.8139 33.5911 48.1013 35.0005 48.1015 36.4238C48.1018 37.8471 47.8149 39.2565 47.2573 40.5716C46.6998 41.8867 45.8824 43.0816 44.8519 44.0883C43.8214 45.0949 42.5979 45.8934 41.2514 46.4383C39.9048 46.9832 38.4615 47.2638 37.0039 47.264C34.0602 47.264 31.237 46.1221 29.1555 44.0895C27.0739 42.0569 25.9045 39.3001 25.9045 36.4256C25.9045 33.551 27.0739 30.7942 29.1555 28.7616C31.237 26.729 34.0602 25.5871 37.0039 25.5871M56.4279 12.9422C55.2014 12.9422 54.0251 13.418 53.1577 14.265C52.2904 15.1119 51.8032 16.2605 51.8032 17.4583C51.8032 18.656 52.2904 19.8047 53.1577 20.6516C54.0251 21.4985 55.2014 21.9743 56.4279 21.9743C57.6545 21.9743 58.8308 21.4985 59.6982 20.6516C60.5655 19.8047 61.0527 18.656 61.0527 17.4583C61.0527 16.2605 60.5655 15.1119 59.6982 14.265C58.8308 13.418 57.6545 12.9422 56.4279 12.9422Z" fill="#FF5B37"/>
</svg>
